<svg id="Capa_1" enable-background="new 0 0 512 512" height="512" viewBox="0 0 512 512" width="512" xmlns="http://www.w3.org/2000/svg"><g><path d="m285.848 77.5-38 50.833h-247.848v383.667h512v-434.5zm-122.119 157.887h-18.519c-9.121 0-16.542 7.421-16.542 16.542v44.671l-27.124 25.787 27.124 25.788v44.67c0 9.121 7.421 16.542 16.542 16.542h18.519v30h-18.519c-25.663 0-46.542-20.879-46.542-46.542v-31.797l-40.663-38.661 40.663-38.66v-31.798c0-25.663 20.879-46.542 46.542-46.542h18.519zm54.914 207.515-27.285-12.471 101-221 27.285 12.471zm194.689-81.854v31.797c0 25.663-20.879 46.542-46.542 46.542h-18.519v-30h18.519c9.121 0 16.542-7.421 16.542-16.542v-44.67l27.124-25.788-27.124-25.787v-44.671c0-9.121-7.421-16.542-16.542-16.542h-18.519v-30h18.519c25.663 0 46.542 20.879 46.542 46.542v31.798l40.663 38.66z"/><path d="m232.818 98.333 38-50.833h241.182v-47.5h-512v98.333zm-60.985-63.5h30v30h-30zm-61.541 0h30v30h-30zm-61.542 0h30v30h-30z"/></g></svg>