<?xml version="1.0" encoding="iso-8859-1"?>
<!-- Generator: Adobe Illustrator 19.0.0, SVG Export Plug-In . SVG Version: 6.00 Build 0)  -->
<svg version="1.1" id="Capa_1" xmlns="http://www.w3.org/2000/svg" xmlns:xlink="http://www.w3.org/1999/xlink" x="0px" y="0px"
	 viewBox="0 0 512 512" style="enable-background:new 0 0 512 512;" xml:space="preserve">
<path style="fill:#FFCA5B;" d="M512,256c0,43.708-10.951,84.856-30.271,120.853c-12.434,23.186-28.338,44.231-47.02,62.454
	c-9.571,9.331-19.874,17.92-30.814,25.673C362.13,494.592,311.097,512,256,512s-106.13-17.408-147.895-47.02
	c-10.94-7.753-21.243-16.342-30.814-25.673c-13.709-13.375-25.924-28.264-36.362-44.419c-3.793-5.851-7.346-11.87-10.658-18.035
	c-6.353-11.828-11.797-24.21-16.238-37.052c-1.139-3.281-2.215-6.593-3.218-9.937c-3.971-13.208-6.907-26.864-8.704-40.876
	C0.721,278.194,0,267.18,0,256C0,114.615,114.615,0,256,0S512,114.615,512,256z"/>
<g>
	<circle style="fill:#FF99B6;" cx="328.349" cy="173.202" r="38.398"/>
	<circle style="fill:#FF99B6;" cx="381.795" cy="192.01" r="23.313"/>
</g>
<path style="fill:#FF6292;" d="M481.729,229.763v147.09c-12.434,23.186-28.338,44.231-47.02,62.454
	c-9.571,9.331-19.874,17.92-30.814,25.673C362.13,494.592,311.097,512,256,512s-106.13-17.408-147.895-47.02
	c-10.94-7.753-21.243-16.342-30.814-25.673c-18.683-18.223-34.586-39.267-47.02-62.454v-147.09
	c0-23.876,19.362-43.238,43.238-43.238h364.972C462.367,186.525,481.729,205.887,481.729,229.763z"/>
<path style="fill:#DD316B;" d="M434.709,233.545v205.761c-9.571,9.331-19.874,17.92-30.814,25.673h-295.79
	c-10.94-7.753-21.243-16.342-30.814-25.673V233.545H434.709z"/>
<g>
	<path style="fill:#FF6292;" d="M153.276,269.96h-38.41c-8.892,0-14.754,4.775-14.754,10.198v138.209
		c0,5.433,5.862,10.198,14.754,10.198h38.41c29.947,0,53.373-13.887,53.373-51.2V321.16
		C206.649,283.847,183.223,269.96,153.276,269.96z M172.805,377.365c0,14.754-7.377,21.692-19.529,21.692h-19.31v-99.589h19.31
		c12.152,0,19.529,6.938,19.529,21.692V377.365z"/>
	<path style="fill:#FF6292;" d="M255.906,269.96c-8.464,0-16.927,3.03-16.927,10.198v138c0,6.938,8.464,10.407,16.927,10.407
		c8.464,0,16.927-3.469,16.927-10.407v-138C272.833,272.99,264.37,269.96,255.906,269.96z"/>
	<path style="fill:#FF6292;" d="M399.329,269.96c-5.423,0-7.596,2.163-9.759,6.29l-30.166,55.766l-30.375-55.766
		c-2.393-4.127-4.336-6.29-9.77-6.29c-9.32,0-22.998,5.851-22.998,13.887c0,0.648,0,1.515,0.439,2.382l44.91,74.428
		c0.439,0.648,0.867,1.735,0.867,3.03v54.471c0,6.938,8.464,10.407,16.927,10.407s16.927-3.469,16.927-10.407v-54.471
		c0-1.296,0.428-2.382,0.867-3.03l44.701-74.428c0.428-0.867,0.428-1.735,0.428-2.382C422.327,275.811,408.66,269.96,399.329,269.96
		z"/>
</g>
<g>
	<circle style="fill:#FF99B6;" cx="111.355" cy="170.851" r="29.779"/>
	<circle style="fill:#FF99B6;" cx="119.192" cy="48.855" r="29.779"/>
	<circle style="fill:#FF99B6;" cx="427.948" cy="39.201" r="29.779"/>
	<path style="fill:#FF99B6;" d="M51.796,311.118c0,3.124-0.481,6.144-1.379,8.976c-3.803,12.058-15.078,20.804-28.4,20.804
		c-2.769,0-5.444-0.376-7.983-1.097c-1.139-3.281-2.215-6.593-3.218-9.937C6.844,316.656,3.908,303,2.111,288.987
		c5.266-4.744,12.246-7.638,19.905-7.638C38.463,281.349,51.796,294.672,51.796,311.118z"/>
	<circle style="fill:#FF99B6;" cx="401.669" cy="230.41" r="29.779"/>
	<circle style="fill:#FF99B6;" cx="149.755" cy="162.231" r="38.398"/>
	<circle style="fill:#FF99B6;" cx="427.165" cy="90.52" r="38.398"/>
	<circle style="fill:#FF99B6;" cx="368.598" cy="66.414" r="50.364"/>
	<path style="fill:#FF99B6;" d="M76.8,356.571c0,20.365-15.841,37.021-35.871,38.316c-3.793-5.851-7.346-11.87-10.658-18.035
		c-6.353-11.828-11.797-24.21-16.238-37.052c-1.139-3.281-2.215-6.593-3.218-9.937c6.99-7.21,16.76-11.692,27.585-11.692
		c4.2,0,8.234,0.669,12.016,1.923C65.745,325.13,76.8,339.56,76.8,356.571z"/>
	<circle style="fill:#FF99B6;" cx="420.895" cy="263.325" r="38.398"/>
	<circle style="fill:#FF99B6;" cx="151.855" cy="117.812" r="16.99"/>
	<circle style="fill:#FF99B6;" cx="230.463" cy="187.841" r="16.99"/>
	<circle style="fill:#FF99B6;" cx="89.412" cy="65.849" r="16.99"/>
	<circle style="fill:#FF99B6;" cx="304.128" cy="18.829" r="16.99"/>
	<circle style="fill:#FF99B6;" cx="51.8" cy="311.118" r="16.99"/>
</g>
<g>
</g>
<g>
</g>
<g>
</g>
<g>
</g>
<g>
</g>
<g>
</g>
<g>
</g>
<g>
</g>
<g>
</g>
<g>
</g>
<g>
</g>
<g>
</g>
<g>
</g>
<g>
</g>
<g>
</g>
</svg>
