<?xml version="1.0" encoding="iso-8859-1"?>
<!-- Generator: Adobe Illustrator 19.0.0, SVG Export Plug-In . SVG Version: 6.00 Build 0)  -->
<svg version="1.1" id="Capa_1" xmlns="http://www.w3.org/2000/svg" xmlns:xlink="http://www.w3.org/1999/xlink" x="0px" y="0px"
	 viewBox="0 0 512 512" style="enable-background:new 0 0 512 512;" xml:space="preserve">
<g>
	<g>
		<path d="M0,332v15c0,24.814,21.186,45,46,45h196c0-21.354,4.634-41.592,12.715-60H0z"/>
	</g>
</g>
<g>
	<g>
		<path d="M245.032,422H182v30h-15c-24.853,0-45,20.147-45,45c0,8.284,6.716,15,15,15h165.928
			C273.84,490.342,252.53,458.786,245.032,422z"/>
	</g>
</g>
<g>
	<g>
		<path d="M392,377c-8.276,0-15,6.724-15,15s6.724,15,15,15s15-6.724,15-15S400.276,377,392,377z"/>
	</g>
</g>
<g>
	<g>
		<path d="M392,272c-66.275,0-120,53.725-120,120c0,66.273,53.725,120,120,120s120-53.727,120-120C512,325.725,458.275,272,392,272z
			 M392,437c-24.814,0-45-20.186-45-45c0-24.814,20.186-45,45-45c24.814,0,45,20.186,45,45C437,416.814,416.814,437,392,437z"/>
	</g>
</g>
<g>
	<g>
		<polygon points="152.22,93.23 106.037,121.057 152,148.832 198.033,121.015 		"/>
	</g>
</g>
<g>
	<g>
		<polygon points="92,147.624 92,203.211 137,230.413 137,174.822 		"/>
	</g>
</g>
<g>
	<g>
		<polygon points="167,174.815 167,230.413 212,203.211 212,147.622 		"/>
	</g>
</g>
<g>
	<g>
		<path d="M467,0H46C21.186,0,0,21.186,0,46v256h272.767c27.409-36.209,70.426-60,119.233-60s91.824,23.791,119.233,60H512V46
			C512,21.186,491.814,0,467,0z M242.001,211.678L242.001,211.678c-0.001,5.259-2.755,10.122-7.237,12.832l-75,45.322
			C156.755,271.088,155.018,272,152,272c-3.001,0-4.753-0.912-7.764-2.168l-75-45.322C64.754,221.8,62,216.937,62,211.678v-90.645
			c1.002-5.7,1.588-9.056,6.94-12.512c3.021-1.952,78.602-47.666,75.575-45.657c4.761-2.871,10.752-2.886,15.513,0.015
			l74.751,45.322c4.666,4.801,6.621,4.872,7.004,12.004c0.016,0.293,0.218,0.533,0.218,0.828V211.678z M407,182h-60
			c-8.291,0-15-6.709-15-15s6.709-15,15-15h60c8.291,0,15,6.709,15,15S415.291,182,407,182z M407,122h-60c-8.291,0-15-6.709-15-15
			s6.709-15,15-15h60c8.291,0,15,6.709,15,15S415.291,122,407,122z"/>
	</g>
</g>
<g>
</g>
<g>
</g>
<g>
</g>
<g>
</g>
<g>
</g>
<g>
</g>
<g>
</g>
<g>
</g>
<g>
</g>
<g>
</g>
<g>
</g>
<g>
</g>
<g>
</g>
<g>
</g>
<g>
</g>
</svg>
